<svg width="27" height="18" viewBox="0 0 27 18" fill="none" xmlns="http://www.w3.org/2000/svg">
    <path d="M2.264 10.928L2.24 10.376C1.856 10.328 1.376 10.232 0.8 10.088C0.56 9.864 0.44 9.536 0.44 9.104C0.44 8.96 0.464 8.888 0.512 8.888C0.576 8.888 0.68 8.904 0.824 8.936C1.16 9.048 1.624 9.136 2.216 9.2C2.152 7.984 2.016 6.76 1.808 5.528C1.616 4.28 1.44 3.336 1.28 2.696L1.04 1.736L3.128 0.751999L3.752 1.136C3.992 2.56 4.112 3.968 4.112 5.36C4.112 6.752 4.072 8.048 3.992 9.248C6.152 9.152 7.944 8.784 9.368 8.144C9.352 7.808 9.344 7.048 9.344 5.864C9.344 4.664 9.496 3.088 9.8 1.136L10.424 0.751999L12.464 1.736C11.728 3.624 11.36 6.528 11.36 10.448C11.36 13.36 11.48 15.792 11.72 17.744C11.72 17.792 11.656 17.816 11.528 17.816C11.112 17.816 10.8 17.696 10.592 17.456C10.016 14.528 9.648 12.04 9.488 9.992C7.792 10.344 6.232 10.52 4.808 10.52H3.896C3.72 12.376 3.408 14.648 2.96 17.336C2.848 17.464 2.664 17.568 2.408 17.648C2.168 17.744 1.96 17.792 1.784 17.792C1.624 17.792 1.544 17.752 1.544 17.672L1.616 17.408C2.048 15.824 2.264 13.664 2.264 10.928ZM16.4559 10.928L16.4319 10.376C16.0479 10.328 15.5679 10.232 14.9919 10.088C14.7519 9.864 14.6319 9.536 14.6319 9.104C14.6319 8.96 14.6559 8.888 14.7039 8.888C14.7679 8.888 14.8719 8.904 15.0159 8.936C15.3519 9.048 15.8159 9.136 16.4079 9.2C16.3439 7.984 16.2079 6.76 15.9999 5.528C15.8079 4.28 15.6319 3.336 15.4719 2.696L15.2319 1.736L17.3199 0.751999L17.9439 1.136C18.1839 2.56 18.3039 3.968 18.3039 5.36C18.3039 6.752 18.2639 8.048 18.1839 9.248C20.3439 9.152 22.1359 8.784 23.5599 8.144C23.5439 7.808 23.5359 7.048 23.5359 5.864C23.5359 4.664 23.6879 3.088 23.9919 1.136L24.6159 0.751999L26.6559 1.736C25.9199 3.624 25.5519 6.528 25.5519 10.448C25.5519 13.36 25.6719 15.792 25.9119 17.744C25.9119 17.792 25.8479 17.816 25.7199 17.816C25.3039 17.816 24.9919 17.696 24.7839 17.456C24.2079 14.528 23.8399 12.04 23.6799 9.992C21.9839 10.344 20.4239 10.52 18.9999 10.52H18.0879C17.9119 12.376 17.5999 14.648 17.1519 17.336C17.0399 17.464 16.8559 17.568 16.5999 17.648C16.3599 17.744 16.1519 17.792 15.9759 17.792C15.8159 17.792 15.7359 17.752 15.7359 17.672L15.8079 17.408C16.2399 15.824 16.4559 13.664 16.4559 10.928Z" fill="url(#paint0_linear_217_969)"/>
    <defs>
    <linearGradient id="paint0_linear_217_969" x1="-1" y1="-6" x2="30.8456" y2="22.8601" gradientUnits="userSpaceOnUse">
    <stop stop-color="#5A7CFF"/>
    <stop offset="1" stop-color="#5FC6FF"/>
    </linearGradient>
    </defs>
    </svg>
    